<svg xmlns="http://www.w3.org/2000/svg" viewBox="0 0 500 500"><g id="freepik--background-complete--inject-1"><rect y="382.4" width="500" height="0.25" style="fill:#e0e0e0"></rect><rect x="413.5" y="396.43" width="10.61" height="0.25" style="fill:#e0e0e0"></rect><rect x="363.01" y="396.55" width="43.15" height="0.25" style="fill:#e0e0e0"></rect><rect x="236.85" y="394.17" width="72.82" height="0.25" style="fill:#e0e0e0"></rect><rect x="171.85" y="398.51" width="23.11" height="0.25" style="fill:#e0e0e0"></rect><rect x="86.13" y="394.29" width="31.82" height="0.25" style="fill:#e0e0e0"></rect><rect x="123.5" y="394.29" width="29.74" height="0.25" style="fill:#e0e0e0"></rect><rect x="65.29" y="389.92" width="30.37" height="0.25" style="fill:#e0e0e0"></rect><path d="M237,337.8H43.91a5.71,5.71,0,0,1-5.7-5.71V60.66A5.71,5.71,0,0,1,43.91,55H237a5.71,5.71,0,0,1,5.71,5.71V332.09A5.71,5.71,0,0,1,237,337.8ZM43.91,55.2a5.46,5.46,0,0,0-5.45,5.46V332.09a5.46,5.46,0,0,0,5.45,5.46H237a5.47,5.47,0,0,0,5.46-5.46V60.66A5.47,5.47,0,0,0,237,55.2Z" style="fill:#e0e0e0"></path><path d="M453.31,337.8H260.21a5.72,5.72,0,0,1-5.71-5.71V60.66A5.72,5.72,0,0,1,260.21,55h193.1A5.71,5.71,0,0,1,459,60.66V332.09A5.71,5.71,0,0,1,453.31,337.8ZM260.21,55.2a5.47,5.47,0,0,0-5.46,5.46V332.09a5.47,5.47,0,0,0,5.46,5.46h193.1a5.47,5.47,0,0,0,5.46-5.46V60.66a5.47,5.47,0,0,0-5.46-5.46Z" style="fill:#e0e0e0"></path><rect x="60" y="75.47" width="378" height="287.54" rx="7.52" style="fill:#e0e0e0"></rect><rect x="62" y="75.47" width="378" height="287.54" rx="7.52" style="fill:#ebebeb"></rect><path d="M62,94.91V355.49A7.54,7.54,0,0,0,69.52,363h363a7.54,7.54,0,0,0,7.52-7.52V94.91Z" style="fill:#e0e0e0"></path><rect x="63.39" y="104.91" width="375.22" height="248.1" style="fill:#fafafa"></rect><path d="M425.34,330.31H76.66a.13.13,0,0,1-.12-.13V121a.12.12,0,0,1,.12-.12H425.34a.12.12,0,0,1,.12.12V330.18A.12.12,0,0,1,425.34,330.31Zm-348.55-.25H425.21V121.13H76.79Z" style="fill:#e0e0e0"></path><path d="M78.5,89.75a4.5,4.5,0,1,1,4.5-4.5A4.51,4.51,0,0,1,78.5,89.75Zm0-8a3.5,3.5,0,1,0,3.5,3.5A3.5,3.5,0,0,0,78.5,81.75Z" style="fill:#fafafa"></path><path d="M92.67,89.75a4.5,4.5,0,1,1,4.5-4.5A4.51,4.51,0,0,1,92.67,89.75Zm0-8a3.5,3.5,0,1,0,3.5,3.5A3.5,3.5,0,0,0,92.67,81.75Z" style="fill:#fafafa"></path><path d="M106.85,89.75a4.5,4.5,0,1,1,4.5-4.5A4.51,4.51,0,0,1,106.85,89.75Zm0-8a3.5,3.5,0,1,0,3.5,3.5A3.5,3.5,0,0,0,106.85,81.75Z" style="fill:#fafafa"></path><rect x="62" y="94.41" width="378" height="1" style="fill:#e0e0e0"></rect><rect x="95.67" y="129.56" width="172.92" height="176.24" style="fill:#ebebeb"></rect><rect x="302.61" y="129.56" width="114.17" height="57.33" style="fill:#ebebeb"></rect><circle cx="324" cy="151" r="13" style="fill:#fafafa"></circle><rect x="349" y="138" width="56.33" height="5.33" style="fill:#fafafa"></rect><rect x="349" y="147.78" width="36.56" height="5.33" style="fill:#fafafa"></rect><rect x="302.61" y="208.33" width="114.17" height="144.68" style="fill:#ebebeb"></rect><rect x="307.68" y="219.24" width="48.7" height="48.7" style="fill:#fafafa"></rect><rect x="308.06" y="274.13" width="48.7" height="48.7" style="fill:#fafafa"></rect><rect x="363.02" y="219.24" width="48.7" height="25.83" style="fill:#fafafa"></rect><rect x="363.02" y="251.27" width="48.7" height="48.7" style="fill:#fafafa"></rect><rect x="308.06" y="328.66" width="48.7" height="24.35" style="fill:#fafafa"></rect><rect x="363.02" y="305.8" width="48.7" height="47.21" style="fill:#fafafa"></rect></g><g id="freepik--Shadow--inject-1"><ellipse cx="250" cy="416.24" rx="193.89" ry="11.32" style="fill:#f5f5f5"></ellipse></g><g id="freepik--Graphics--inject-1"><rect x="80.43" y="359.19" width="199.78" height="50.33" rx="8.94" style="fill:#2EC8C6"></rect><rect x="82.54" y="361.3" width="199.78" height="50.33" rx="8.94" style="fill:#2EC8C6"></rect><rect x="82.54" y="361.3" width="199.78" height="50.33" rx="8.94" style="fill:#fafafa;opacity:0.6000000000000001"></rect><rect x="84.65" y="363.41" width="199.78" height="50.34" rx="8.94" style="fill:#2EC8C6"></rect><rect x="84.65" y="363.41" width="199.78" height="50.34" rx="8.94" style="fill:#fafafa;opacity:0.8"></rect><rect x="136.57" y="371.92" width="100.93" height="7.62" rx="1.91" style="fill:#2EC8C6"></rect><rect x="136.57" y="384.77" width="47.32" height="7.62" rx="1.91" style="fill:#2EC8C6"></rect><rect x="188.68" y="384.77" width="37.21" height="7.62" rx="1.91" style="fill:#2EC8C6"></rect><rect x="136.57" y="397.62" width="119.47" height="2.87" rx="1.04" style="fill:#2EC8C6"></rect><rect x="136.57" y="397.62" width="119.47" height="2.87" rx="1.04" style="fill:#fafafa;opacity:0.5"></rect><circle cx="108.92" cy="388.58" r="17.93" transform="translate(-294.32 404.57) rotate(-76.61)" style="fill:#2EC8C6"></circle><path d="M123.72,388.58a14.8,14.8,0,1,1-14.8-14.8A14.67,14.67,0,0,1,123.72,388.58Z" style="fill:#fafafa"></path><path d="M121.93,395.63a14.8,14.8,0,0,1-26,0,23.45,23.45,0,0,1,26,0Z" style="fill:#2EC8C6"></path><path d="M121.93,395.63a14.8,14.8,0,0,1-26,0,23.45,23.45,0,0,1,26,0Z" style="fill:#fafafa;opacity:0.7000000000000001"></path><circle cx="108.92" cy="383.52" r="6.59" style="fill:#2EC8C6"></circle><circle cx="108.92" cy="383.52" r="6.59" style="fill:#fafafa;opacity:0.7000000000000001"></circle><rect x="80.43" y="300.95" width="199.78" height="50.33" rx="8.94" style="fill:#2EC8C6"></rect><rect x="82.54" y="303.06" width="199.78" height="50.34" rx="8.94" style="fill:#2EC8C6"></rect><rect x="82.54" y="303.06" width="199.78" height="50.34" rx="8.94" style="fill:#fafafa;opacity:0.6000000000000001"></rect><rect x="84.65" y="305.17" width="199.78" height="50.33" rx="8.94" style="fill:#2EC8C6"></rect><rect x="84.65" y="305.17" width="199.78" height="50.33" rx="8.94" style="fill:#fafafa;opacity:0.8"></rect><rect x="136.57" y="313.68" width="32.76" height="7.62" rx="1.91" style="fill:#2EC8C6"></rect><rect x="173.58" y="313.68" width="26.17" height="7.62" rx="1.91" style="fill:#2EC8C6"></rect><rect x="136.57" y="326.53" width="105.43" height="7.62" rx="1.91" style="fill:#2EC8C6"></rect><rect x="136.57" y="339.38" width="72.93" height="2.87" rx="1.04" style="fill:#2EC8C6"></rect><rect x="136.57" y="339.38" width="72.93" height="2.87" rx="1.04" style="fill:#fafafa;opacity:0.5"></rect><circle cx="108.92" cy="330.34" r="17.93" transform="translate(-237.66 359.82) rotate(-76.61)" style="fill:#2EC8C6"></circle><path d="M123.72,330.34a14.8,14.8,0,1,1-14.8-14.8A14.67,14.67,0,0,1,123.72,330.34Z" style="fill:#fafafa"></path><path d="M121.93,337.39a14.8,14.8,0,0,1-26,0,23.45,23.45,0,0,1,26,0Z" style="fill:#2EC8C6"></path><path d="M121.93,337.39a14.8,14.8,0,0,1-26,0,23.45,23.45,0,0,1,26,0Z" style="fill:#fafafa;opacity:0.7000000000000001"></path><circle cx="108.92" cy="325.28" r="6.59" style="fill:#2EC8C6"></circle><circle cx="108.92" cy="325.28" r="6.59" style="fill:#fafafa;opacity:0.7000000000000001"></circle><rect x="80.43" y="242.71" width="199.78" height="50.34" rx="8.94" style="fill:#2EC8C6"></rect><rect x="82.54" y="244.82" width="199.78" height="50.33" rx="8.94" style="fill:#2EC8C6"></rect><rect x="82.54" y="244.82" width="199.78" height="50.33" rx="8.94" style="fill:#fafafa;opacity:0.6000000000000001"></rect><rect x="84.65" y="246.93" width="199.78" height="50.34" rx="8.94" style="fill:#2EC8C6"></rect><rect x="84.65" y="246.93" width="199.78" height="50.34" rx="8.94" style="fill:#fafafa;opacity:0.8"></rect><rect x="136.57" y="255.44" width="100.21" height="7.62" rx="1.91" style="fill:#2EC8C6"></rect><rect x="136.57" y="268.29" width="67.76" height="7.62" rx="1.91" style="fill:#2EC8C6"></rect><rect x="209.99" y="268.29" width="9.76" height="7.62" rx="1.91" style="fill:#2EC8C6"></rect><rect x="136.57" y="281.14" width="53.65" height="2.87" rx="1.04" style="fill:#2EC8C6"></rect><rect x="136.57" y="281.14" width="53.65" height="2.87" rx="1.04" style="fill:#fafafa;opacity:0.5"></rect><rect x="195.68" y="281.14" width="61.21" height="2.87" rx="1.04" style="fill:#2EC8C6"></rect><rect x="195.68" y="281.14" width="61.21" height="2.87" rx="1.04" style="fill:#fafafa;opacity:0.5"></rect><circle cx="108.92" cy="272.1" r="17.93" transform="translate(-160.5 156.71) rotate(-45)" style="fill:#2EC8C6"></circle><path d="M123.72,272.1a14.8,14.8,0,1,1-14.8-14.8A14.67,14.67,0,0,1,123.72,272.1Z" style="fill:#fafafa"></path><path d="M121.93,279.15a14.8,14.8,0,0,1-26,0,23.45,23.45,0,0,1,26,0Z" style="fill:#2EC8C6"></path><path d="M121.93,279.15a14.8,14.8,0,0,1-26,0,23.45,23.45,0,0,1,26,0Z" style="fill:#fafafa;opacity:0.7000000000000001"></path><path d="M115.51,267a6.59,6.59,0,1,1-6.59-6.6A6.59,6.59,0,0,1,115.51,267Z" style="fill:#2EC8C6"></path><path d="M115.51,267a6.59,6.59,0,1,1-6.59-6.6A6.59,6.59,0,0,1,115.51,267Z" style="fill:#fafafa;opacity:0.7000000000000001"></path><rect x="125.78" y="122.73" width="4.56" height="1" style="fill:#2EC8C6"></rect><rect x="107.78" y="122.73" width="10.78" height="1" style="fill:#2EC8C6"></rect><rect x="80.43" y="126.23" width="199.78" height="50.34" rx="8.94" style="fill:#2EC8C6"></rect><rect x="82.54" y="128.34" width="199.78" height="50.34" rx="8.94" style="fill:#2EC8C6"></rect><rect x="82.54" y="128.34" width="199.78" height="50.34" rx="8.94" style="fill:#fafafa;opacity:0.6000000000000001"></rect><rect x="84.65" y="130.45" width="199.78" height="50.34" rx="8.94" style="fill:#2EC8C6"></rect><rect x="84.65" y="130.45" width="199.78" height="50.34" rx="8.94" style="fill:#fafafa;opacity:0.8"></rect><rect x="136.57" y="138.96" width="92.26" height="7.62" rx="1.91" style="fill:#2EC8C6"></rect><rect x="136.57" y="151.81" width="122.76" height="7.62" rx="1.91" style="fill:#2EC8C6"></rect><rect x="136.57" y="164.66" width="34.54" height="2.87" rx="1.04" style="fill:#2EC8C6"></rect><rect x="136.57" y="164.66" width="34.54" height="2.87" rx="1.04" style="fill:#fafafa;opacity:0.5"></rect><circle cx="108.92" cy="155.62" r="17.93" transform="translate(-67.69 225.55) rotate(-76.61)" style="fill:#2EC8C6"></circle><path d="M123.72,155.62a14.8,14.8,0,1,1-14.8-14.8A14.73,14.73,0,0,1,123.72,155.62Z" style="fill:#fafafa"></path><path d="M121.93,162.67a14.8,14.8,0,0,1-26,0,23.45,23.45,0,0,1,26,0Z" style="fill:#2EC8C6"></path><path d="M121.93,162.67a14.8,14.8,0,0,1-26,0,23.45,23.45,0,0,1,26,0Z" style="fill:#fafafa;opacity:0.7000000000000001"></path><circle cx="108.92" cy="150.55" r="6.59" style="fill:#2EC8C6"></circle><circle cx="108.92" cy="150.55" r="6.59" style="fill:#fafafa;opacity:0.7000000000000001"></circle></g><g id="freepik--Character--inject-1"><path d="M399.13,261.11l-6.56,3.41,7.35,5.71s4.94-4.14,3-7Z" style="fill:#e4897b"></path><polygon points="388.82 271.47 395.09 275.83 399.92 270.23 392.57 264.52 388.82 271.47" style="fill:#e4897b"></polygon><path d="M401.67,204.4c.9,1.18,1.67,2.24,2.45,3.39s1.52,2.26,2.26,3.4c1.46,2.3,2.85,4.66,4.13,7.08a82.28,82.28,0,0,1,3.56,7.52l.79,2,.71,2c.25.66.44,1.36.65,2.05l.31,1,.07.26.12.43a9.07,9.07,0,0,1,.18.94,14.82,14.82,0,0,1-.4,5.66,33,33,0,0,1-1.41,4.34,62.61,62.61,0,0,1-3.68,7.53,101.89,101.89,0,0,1-9.09,13.38l-4.6-3c2.21-4.61,4.37-9.36,6.26-14a69,69,0,0,0,2.41-6.93,23,23,0,0,0,.71-3.22,5.9,5.9,0,0,0,0-2.14s0,0,0,0,0,.06,0,0l-.08-.2-.33-.83c-.21-.55-.41-1.09-.67-1.64l-.72-1.64-.79-1.65q-1.64-3.27-3.52-6.5c-1.27-2.14-2.58-4.28-4-6.38s-2.83-4.23-4.17-6.16Z" style="fill:#e4897b"></path><path d="M415.33,219.75,398.86,231.3s-1-2.16-2.39-5.31c-1.13-2.51-2.54-5.64-3.94-8.8-.57-1.28-1.13-2.56-1.68-3.81-3.81-8.68.64-14.93,8.46-13.77C406.2,200.64,415.33,219.75,415.33,219.75Z" style="fill:#263238"></path><path d="M397.26,207.73c.32,3.1.35,12.69-.79,18.26-1.13-2.51-2.54-5.64-3.94-8.8Z" style="fill:#2EC8C6"></path><path d="M397.26,207.73c.32,3.1.35,12.69-.79,18.26-1.13-2.51-2.54-5.64-3.94-8.8Z" style="fill:#2EC8C6;opacity:0.8"></path><g style="opacity:0.8"><path d="M397.26,207.73c.32,3.1.35,12.69-.79,18.26-1.13-2.51-2.54-5.64-3.94-8.8Z"></path><path d="M397.26,207.73c.32,3.1.35,12.69-.79,18.26-1.13-2.51-2.54-5.64-3.94-8.8Z" style="opacity:0.8"></path></g><path d="M421.9,286.37,246.12,239.61a9,9,0,0,1-6.34-10.94l8.34-31.36A9,9,0,0,1,259.06,191l175.78,46.75a9,9,0,0,1,6.34,10.95L432.84,280A9,9,0,0,1,421.9,286.37Z" style="fill:#2EC8C6"></path><path d="M421.9,286.37,246.12,239.61a9,9,0,0,1-6.34-10.94l8.34-31.36A9,9,0,0,1,259.06,191l175.78,46.75a9,9,0,0,1,6.34,10.95L432.84,280A9,9,0,0,1,421.9,286.37Z" style="fill:#fafafa;opacity:0.8"></path><path d="M423.39,289,247.62,242.19a9,9,0,0,1-6.35-10.94l8.35-31.35a9,9,0,0,1,10.94-6.35l175.77,46.76a9,9,0,0,1,6.35,10.94l-8.34,31.36A9,9,0,0,1,423.39,289Z" style="fill:#2EC8C6"></path><path d="M423.39,289,247.62,242.19a9,9,0,0,1-6.35-10.94l8.35-31.35a9,9,0,0,1,10.94-6.35l175.77,46.76a9,9,0,0,1,6.35,10.94l-8.34,31.36A9,9,0,0,1,423.39,289Z" style="fill:#fafafa;opacity:0.4"></path><path d="M424.89,291.54,249.12,244.78a9,9,0,0,1-6.35-10.94l8.34-31.36a9,9,0,0,1,10.95-6.34l175.77,46.75a9,9,0,0,1,6.35,11l-8.35,31.35A9,9,0,0,1,424.89,291.54Z" style="fill:#2EC8C6"></path><path d="M424.89,291.54,249.12,244.78a9,9,0,0,1-6.35-10.94l8.34-31.36a9,9,0,0,1,10.95-6.34l175.77,46.75a9,9,0,0,1,6.35,11l-8.35,31.35A9,9,0,0,1,424.89,291.54Z" style="opacity:0.2"></path><rect x="298.42" y="230.64" width="119.47" height="7.62" rx="1.91" transform="translate(72.3 -84.19) rotate(14.9)" style="fill:#2EC8C6"></rect><rect x="298.42" y="230.64" width="119.47" height="7.62" rx="1.91" transform="translate(72.3 -84.19) rotate(14.9)" style="fill:#fafafa;opacity:0.7000000000000001"></rect><rect x="295.83" y="237.58" width="76.87" height="7.62" rx="1.91" transform="translate(73.29 -77.82) rotate(14.9)" style="fill:#2EC8C6"></rect><rect x="295.83" y="237.58" width="76.87" height="7.62" rx="1.91" transform="translate(73.29 -77.82) rotate(14.9)" style="fill:#fafafa;opacity:0.7000000000000001"></rect><rect x="292.6" y="254.16" width="108.67" height="2.87" rx="1.04" transform="translate(77.37 -80.6) rotate(14.9)" style="fill:#fafafa"></rect><circle cx="270.4" cy="224.4" r="17.93" transform="matrix(0.57, -0.82, 0.82, 0.57, -68.43, 317.5)" style="fill:#2EC8C6"></circle><path d="M284.7,228.2a14.8,14.8,0,1,1-10.5-18.11A14.71,14.71,0,0,1,284.7,228.2Z" style="fill:#fafafa"></path><path d="M281.16,234.55A14.79,14.79,0,0,1,256,227.86a23.47,23.47,0,0,1,25.15,6.69Z" style="fill:#2EC8C6"></path><path d="M281.16,234.55A14.79,14.79,0,0,1,256,227.86a23.47,23.47,0,0,1,25.15,6.69Z" style="fill:#fafafa;opacity:0.7000000000000001"></path><path d="M278.07,221.2a6.59,6.59,0,1,1-4.68-8.07A6.59,6.59,0,0,1,278.07,221.2Z" style="fill:#2EC8C6"></path><path d="M278.07,221.2a6.59,6.59,0,1,1-4.68-8.07A6.59,6.59,0,0,1,278.07,221.2Z" style="fill:#fafafa;opacity:0.7000000000000001"></path><path d="M388.94,178.12c-1.87,5.1-4.45,14.58-1.33,18.68,0,0-2.29,5.11-12.07,3.54-10.76-1.73-4.29-6.16-4.29-6.16,6.1-.46,6.64-4.84,6.28-9.1Z" style="fill:#e4897b"></path><path d="M369,195.88c.55-.93.06-4.56.06-4.56s15.56-1.15,21,1.15c2.91,1.23,0,6.41,0,6.41Z" style="fill:#2EC8C6"></path><path d="M369,195.88c.55-.93.06-4.56.06-4.56s15.56-1.15,21,1.15c2.91,1.23,0,6.41,0,6.41Z" style="opacity:0.1"></path><path d="M371,169.16c-.1.58-.48,1-.86.94s-.61-.58-.52-1.16.48-1,.86-.94S371.06,168.58,371,169.16Z" style="fill:#263238"></path><path d="M370.93,169.45a20.76,20.76,0,0,1-3.57,4.51,3.38,3.38,0,0,0,2.69,1Z" style="fill:#de5753"></path><path d="M373.34,167.36a.33.33,0,0,1-.31-.18,2.73,2.73,0,0,0-2-1.49.35.35,0,0,1,.06-.69,3.44,3.44,0,0,1,2.55,1.85.35.35,0,0,1-.14.47A.32.32,0,0,1,373.34,167.36Z" style="fill:#263238"></path><polygon points="325.59 399.23 318.37 398.26 318.71 381.28 325.93 382.25 325.59 399.23" style="fill:#e4897b"></polygon><polygon points="379.49 407.21 372.2 407.21 366.53 390.33 373.81 390.33 379.49 407.21" style="fill:#e4897b"></polygon><path d="M371.23,406.36h8.89a.65.65,0,0,1,.62.5l1.44,6.48a1.07,1.07,0,0,1-1.07,1.29c-2.86-.05-4.94-.21-8.54-.21-2.22,0-6.78.23-9.84.23s-3.46-3-2.21-3.3c5.62-1.23,7.73-2.92,9.53-4.54A1.77,1.77,0,0,1,371.23,406.36Z" style="fill:#263238"></path><path d="M318.12,396.61l7.89,1.06a.63.63,0,0,1,.54.58l.56,6.61A1.06,1.06,0,0,1,325.9,406c-2.84-.44-6.92-1.16-10.5-1.64-4.18-.57-7-.88-11.87-1.54-3-.4-3.38-3.51-2.1-3.62,5.81-.47,9.59.08,14.87-2.27A3.4,3.4,0,0,1,318.12,396.61Z" style="fill:#263238"></path><polygon points="318.71 381.28 318.53 390.04 325.76 391.01 325.93 382.26 318.71 381.28" style="fill:#ce6f64"></polygon><polygon points="373.82 390.34 366.53 390.34 369.46 399.04 376.75 399.04 373.82 390.34" style="fill:#ce6f64"></polygon><path d="M360,194.91s-11.47,20.65-8.85,62.35l38.61,5.21c1.07-5.89,1.25-35.31,10.74-62.47a100.29,100.29,0,0,0-12.71-3.38,141.7,141.7,0,0,0-16.41-2.22A72.83,72.83,0,0,0,360,194.91Z" style="fill:#263238"></path><path d="M364.44,205.43c-1.6,2.77-3.3,5.45-5,8.17l-5.17,8c-1.72,2.68-3.52,5.32-5.33,8-.9,1.32-1.83,2.63-2.76,3.94l-1.41,2c-.52.71-1.13,1.52-1.71,2.19a56.85,56.85,0,0,1-7.5,7.14c-2.61,2.08-5.26,4-8,5.8a145.21,145.21,0,0,1-16.89,9.62L308,255.54c5-3.67,10-7.54,14.76-11.47,2.37-2,4.69-4,6.86-6.09a52,52,0,0,0,5.82-6.42c.42-.55.74-1,1.12-1.63l1.23-2,2.45-4,4.9-8.07,4.9-8.1c1.67-2.68,3.3-5.4,5-8.05Z" style="fill:#e4897b"></path><path d="M368,203.78c-.93,6.9-13,23.32-13,23.32l-16.81-14.19s8.79-9.83,16-15.44S369,196.2,368,203.78Z" style="fill:#263238"></path><path d="M311.62,253.46l-6.29,2.14,6.3,6.57s3.84-.46,3.49-5.76Z" style="fill:#e4897b"></path><polygon points="301.16 260.6 308.35 264.13 311.63 262.17 305.33 255.6 301.16 260.6" style="fill:#e4897b"></polygon><path d="M390.84,170.3c-1.58,7.06-2.15,11.27-6.33,14.35-6.3,4.63-14.57,0-15.13-7.43-.51-6.65,2.16-17.07,9.6-18.79A9.86,9.86,0,0,1,390.84,170.3Z" style="fill:#e4897b"></path><path d="M400.61,170.06a3.89,3.89,0,0,0-1.79-2.65c3.42-1.5,1.71-3.24-1.21-5.78h0c-3.77-3.37-5.34-10.19-5.17-11.65-1.19,1.81-.87,4.48.14,6.88a16.56,16.56,0,0,1-3-4.7c-2.92-7.33-9.23-.92-15.32-.71-10.23.35-2.13-5,5.38-4.84-11.19-3.43-22.35.82-20.53,8.3s14.34-2,14.27,4.9c0,1.4,1.53,2.78,3.8,3.87-3.15,6.48,4.53,19.5,9,19.92s12.3-7.36,12.63-14.1A5,5,0,0,1,400.61,170.06Z" style="fill:#263238"></path><path d="M380.68,171.91a6.92,6.92,0,0,1-3.12,4.22c-2.08,1.22-3.73-.48-3.68-2.77.05-2.05,1.2-5.17,3.53-5.46A3.09,3.09,0,0,1,380.68,171.91Z" style="fill:#e4897b"></path><path d="M379.38,397.35H366s-17.62-44.93-19.49-68.24c-.4-5,.4-11.59,1.88-18.68,2.52-12.12,7-25.79,10.6-36,3.23-9,5.82-15.35,5.82-15.35l24.93,3.37c-2.45,18.09-22.23,46.86-22.46,71.6C367.09,356.87,379.38,397.35,379.38,397.35Z" style="fill:#2EC8C6"></path><path d="M379.38,397.35H366s-17.62-44.93-19.49-68.24c-.4-5,.4-11.59,1.88-18.68,2.52-12.12,7-25.79,10.6-36,3.23-9,5.82-15.35,5.82-15.35l24.93,3.37c-2.45,18.09-22.23,46.86-22.46,71.6C367.09,356.87,379.38,397.35,379.38,397.35Z" style="opacity:0.1"></path><path d="M365.33,280.11c-.87,12.09-10.17,24.95-16.91,30.32,2.52-12.12,7-25.79,10.6-36C360.91,274.2,363.9,277.93,365.33,280.11Z" style="fill:#2EC8C6"></path><path d="M365.33,280.11c-.87,12.09-10.17,24.95-16.91,30.32,2.52-12.12,7-25.79,10.6-36C360.91,274.2,363.9,277.93,365.33,280.11Z" style="opacity:0.2"></path><path d="M351.15,257.26S316.87,302.91,314.68,325c-2.28,23,1.37,63,1.37,63l12.23,1.65s3.69-37.56,7.28-60c3.9-24.44,41-49.71,43.59-68.63Z" style="fill:#2EC8C6"></path><path d="M351.15,257.26S316.87,302.91,314.68,325c-2.28,23,1.37,63,1.37,63l12.23,1.65s3.69-37.56,7.28-60c3.9-24.44,41-49.71,43.59-68.63Z" style="opacity:0.1"></path><polygon points="363.67 397.64 381.12 397.64 381.12 392.94 361.62 392.64 363.67 397.64" style="fill:#2EC8C6"></polygon><polygon points="363.67 397.64 381.12 397.64 381.12 392.94 361.62 392.64 363.67 397.64" style="fill:#fafafa;opacity:0.4"></polygon><polygon points="313.58 387.92 330.57 390.25 331.2 385.55 312.21 382.69 313.58 387.92" style="fill:#2EC8C6"></polygon><polygon points="313.58 387.92 330.57 390.25 331.2 385.55 312.21 382.69 313.58 387.92" style="fill:#fafafa;opacity:0.4"></polygon><path d="M368.82,407.64a2.19,2.19,0,0,1-1.4-.38,1,1,0,0,1-.36-.91.55.55,0,0,1,.3-.49c.8-.4,3.16,1,3.42,1.2a.18.18,0,0,1,.08.17.16.16,0,0,1-.13.14A8.13,8.13,0,0,1,368.82,407.64Zm-1.08-1.51a.48.48,0,0,0-.22,0s-.1.07-.11.2a.71.71,0,0,0,.23.63,3.54,3.54,0,0,0,2.59.13A7,7,0,0,0,367.74,406.13Z" style="fill:#2EC8C6"></path><path d="M370.69,407.38l-.08,0c-.76-.41-2.21-2-2.06-2.82a.56.56,0,0,1,.55-.45.9.9,0,0,1,.73.22c.85.69,1,2.79,1,2.88a.15.15,0,0,1-.08.16Zm-1.47-3h-.08c-.22,0-.24.13-.25.17-.09.48.84,1.69,1.59,2.26a4.2,4.2,0,0,0-.86-2.28A.6.6,0,0,0,369.22,404.42Z" style="fill:#2EC8C6"></path><path d="M316.28,397.55c-1.14,0-2.5-.15-3-.76a1,1,0,0,1-.21-.88.6.6,0,0,1,.35-.42c.94-.36,3.64,1.5,3.95,1.71a.18.18,0,0,1,.07.19.17.17,0,0,1-.16.12C317,397.53,316.64,397.55,316.28,397.55Zm-2.58-1.76a.4.4,0,0,0-.19,0,.19.19,0,0,0-.13.16.65.65,0,0,0,.13.58c.39.45,1.58.69,3.2.63A8.33,8.33,0,0,0,313.7,395.79Z" style="fill:#2EC8C6"></path><path d="M317.24,397.52l-.09,0c-.82-.51-2.33-2.3-2.09-3.1.05-.18.21-.4.65-.4h.05a1.31,1.31,0,0,1,.91.43,4.9,4.9,0,0,1,.74,2.93.16.16,0,0,1-.09.15Zm-1.53-3.18c-.28,0-.31.11-.32.15-.15.48.86,1.86,1.68,2.52a4.08,4.08,0,0,0-.66-2.36.9.9,0,0,0-.66-.31Z" style="fill:#2EC8C6"></path></g></svg>